# xmcd
#
# Track frame offsets: 
#        150
#        24093
#        47362
#        70433
#        90647
#        109043
#        117739
#        128616
#        152739
#        169889
#        186481
#        205735
#        226576
#        245076
#
# Disc length: 3494 seconds
#
# Revision: 0
# Processed by: cddbd v1.5.2PL0 Copyright (c) Steve Scherf et al.
# Submitted via: ExactAudioCopy v1.0b1
#
DISCID=b70da40e
DTITLE=Garth Brooks - Man Against Machine
DYEAR=2014
DGENRE=Country
TTITLE0=Man Against Machine
TTITLE1=She's Tired of Boys
TTITLE2=Cold Like That
TTITLE3=All-American Kid
TTITLE4=Mom
TTITLE5=Wrong About You
TTITLE6=Rodeo And Juliet
TTITLE7=Midnight Train
TTITLE8=Cowboys Forever
TTITLE9=People Loving People
TTITLE10=Send 'em on Down The Road
TTITLE11=Fish
TTITLE12=You Wreck Me
TTITLE13=Tacoma
EXTD=
EXTT0=
EXTT1=
EXTT2=
EXTT3=
EXTT4=
EXTT5=
EXTT6=
EXTT7=
EXTT8=
EXTT9=
EXTT10=
EXTT11=
EXTT12=
EXTT13=
PLAYORDER=
